<?xml version="1.0" standalone="no"?>
<!DOCTYPE svg PUBLIC "-//W3C//DTD SVG 20010904//EN"
 "http://www.w3.org/TR/2001/REC-SVG-20010904/DTD/svg10.dtd">
<svg version="1.0" xmlns="http://www.w3.org/2000/svg"
 width="1996.000000pt" height="988.000000pt" viewBox="0 0 1996.000000 988.000000"
 preserveAspectRatio="xMidYMid meet">

<g transform="translate(0.000000,988.000000) scale(0.100000,-0.100000)"
fill="#000000" stroke="none">
<path d="M9600 9859 c-795 -63 -1601 -335 -2265 -764 -598 -386 -1143 -933
-1506 -1510 -133 -212 -272 -465 -293 -533 l-7 -22 332 2 333 3 49 85 c163
284 429 633 657 861 448 448 927 765 1496 989 547 216 1071 309 1674 297 690
-14 1265 -155 1870 -458 600 -301 1127 -743 1520 -1274 86 -116 220 -318 267
-403 61 -113 20 -102 395 -102 180 0 328 2 328 5 0 12 -126 256 -181 352 -221
383 -448 681 -768 1007 -604 616 -1352 1061 -2166 1290 -334 94 -643 150 -974
176 -155 12 -606 11 -761 -1z"/>
<path d="M15000 6724 c-281 -26 -545 -140 -761 -328 -150 -131 -290 -334 -353
-514 -81 -227 -104 -431 -71 -642 57 -377 258 -697 567 -902 237 -157 444
-219 733 -219 210 0 386 41 567 132 447 224 727 673 728 1169 0 496 -281 949
-728 1174 -82 41 -230 89 -337 109 -85 17 -271 27 -345 21z m263 -590 c40 -9
113 -35 164 -59 163 -77 307 -237 367 -410 67 -194 54 -388 -42 -583 -29 -61
-57 -97 -132 -173 -79 -79 -110 -102 -180 -136 -106 -52 -180 -72 -295 -80
-284 -19 -563 143 -688 400 -55 112 -77 206 -77 329 0 127 21 216 76 327 97
196 281 339 498 386 85 19 223 18 309 -1z"/>
<path d="M320 4915 l0 -1765 290 0 290 0 0 1108 c0 1083 1 1106 19 1077 10
-16 254 -515 542 -1108 l523 -1077 275 2 275 3 497 1065 c274 586 502 1072
508 1080 7 10 10 -338 10 -1067 l1 -1083 295 0 295 0 0 1765 0 1765 -301 -2
-301 -3 -639 -1365 c-351 -751 -642 -1366 -646 -1367 -4 -1 -181 354 -393 789
-212 436 -511 1051 -665 1368 l-281 575 -297 3 -297 2 0 -1765z"/>
<path d="M4940 4915 l0 -1765 1175 0 1175 0 0 295 0 295 -885 0 -885 0 0 445
0 445 735 0 735 0 0 290 0 290 -735 0 -735 0 0 445 0 445 885 0 885 0 0 290 0
290 -1175 0 -1175 0 0 -1765z"/>
<path d="M7910 4915 l0 -1765 290 0 290 0 0 1257 c0 1066 2 1255 14 1243 7 -8
404 -574 881 -1257 l867 -1243 294 0 294 0 0 1765 0 1765 -290 0 -290 0 -2
-1256 -3 -1257 -880 1257 -880 1256 -292 0 -293 0 0 -1765z"/>
<path d="M11350 6415 l0 -265 370 0 370 0 0 -1500 0 -1500 290 0 290 0 0 1500
0 1500 370 0 370 0 0 265 0 265 -1030 0 -1030 0 0 -265z"/>
<path d="M17130 6391 l0 -291 280 -440 c154 -243 280 -443 280 -446 0 -2 -126
-4 -280 -4 l-280 0 0 -1030 0 -1030 295 0 295 0 0 740 0 740 171 -2 171 -3
453 -729 c250 -401 458 -733 463 -738 4 -4 160 -7 345 -6 l336 3 -474 760
c-261 417 -475 762 -475 766 0 4 30 17 68 30 199 65 372 176 491 315 69 80
147 233 178 352 24 86 27 116 27 272 1 149 -3 188 -22 263 -83 328 -307 556
-667 675 -66 22 -169 51 -230 63 -107 23 -128 23 -767 27 l-658 3 0 -290z
m1288 -306 c167 -25 284 -75 368 -159 65 -66 90 -115 105 -205 14 -86 2 -177
-33 -248 -63 -131 -258 -244 -438 -255 l-44 -3 -273 434 c-150 238 -273 438
-273 442 0 15 480 11 588 -6z"/>
<path d="M13930 3440 l0 -290 1160 0 1160 0 0 290 0 290 -1160 0 -1160 0 0
-290z"/>
<path d="M5530 2845 c0 -12 126 -257 183 -355 311 -541 727 -1020 1247 -1436
390 -312 932 -606 1430 -776 713 -242 1464 -322 2180 -232 762 95 1436 337
2077 745 724 461 1361 1167 1747 1936 31 62 56 115 56 118 0 3 -150 5 -333 5
l-333 0 -45 -77 c-67 -119 -256 -397 -344 -509 -176 -222 -356 -412 -555 -585
-413 -361 -930 -659 -1445 -835 -783 -268 -1635 -306 -2444 -108 -751 184
-1430 562 -1990 1109 -292 286 -475 522 -743 960 l-28 45 -330 0 c-181 0 -330
-2 -330 -5z"/>
</g>
</svg>
